<?xml version="1.0" encoding="UTF-8"?>
<svg xmlns="http://www.w3.org/2000/svg" viewBox="0 0 784 236" width="784" height="236" font-family="system-ui, sans-serif" font-size="12"><text fill="#1a1a1a" font-size="15" font-weight="600" x="16" y="24">Schedule &#8212; device view</text><text fill="#666666" x="16" y="40">makespan 9 second</text><defs><marker id="ah" markerWidth="8" markerHeight="8" refX="7" refY="3" orient="auto"><path d="M0,0 L7,3 L0,6 Z" fill="#9333ea"/></marker></defs><g transform="translate(0,48)"><line stroke="#b3b3b3" stroke-width="1" x1="200.0" y1="34.0" x2="200.0" y2="160.0"/><text fill="#666666" x="200.0" y="28.0" text-anchor="middle">0</text><line stroke="#b3b3b3" stroke-width="1" x1="262.2" y1="34.0" x2="262.2" y2="160.0"/><text fill="#666666" x="262.2" y="28.0" text-anchor="middle">1</text><line stroke="#b3b3b3" stroke-width="1" x1="324.4" y1="34.0" x2="324.4" y2="160.0"/><text fill="#666666" x="324.4" y="28.0" text-anchor="middle">2</text><line stroke="#b3b3b3" stroke-width="1" x1="386.7" y1="34.0" x2="386.7" y2="160.0"/><text fill="#666666" x="386.7" y="28.0" text-anchor="middle">3</text><line stroke="#b3b3b3" stroke-width="1" x1="448.9" y1="34.0" x2="448.9" y2="160.0"/><text fill="#666666" x="448.9" y="28.0" text-anchor="middle">4</text><line stroke="#b3b3b3" stroke-width="1" x1="511.1" y1="34.0" x2="511.1" y2="160.0"/><text fill="#666666" x="511.1" y="28.0" text-anchor="middle">5</text><line stroke="#b3b3b3" stroke-width="1" x1="573.3" y1="34.0" x2="573.3" y2="160.0"/><text fill="#666666" x="573.3" y="28.0" text-anchor="middle">6</text><line stroke="#b3b3b3" stroke-width="1" x1="635.6" y1="34.0" x2="635.6" y2="160.0"/><text fill="#666666" x="635.6" y="28.0" text-anchor="middle">7</text><line stroke="#b3b3b3" stroke-width="1" x1="697.8" y1="34.0" x2="697.8" y2="160.0"/><text fill="#666666" x="697.8" y="28.0" text-anchor="middle">8</text><line stroke="#b3b3b3" stroke-width="1" x1="760.0" y1="34.0" x2="760.0" y2="160.0"/><text fill="#666666" x="760.0" y="28.0" text-anchor="middle">9</text><text fill="#666666" x="200.0" y="180.0">time (second)</text><line stroke="#d9d9d9" stroke-width="1" x1="0" y1="70.0" x2="784.0" y2="70.0"/><text fill="#1a1a1a" x="190.0" y="59.0" text-anchor="end">station_0</text><line stroke="#d9d9d9" stroke-width="1" x1="0" y1="100.0" x2="784.0" y2="100.0"/><text fill="#1a1a1a" x="190.0" y="89.0" text-anchor="end">station_1</text><line stroke="#d9d9d9" stroke-width="1" x1="0" y1="130.0" x2="784.0" y2="130.0"/><text fill="#1a1a1a" x="190.0" y="119.0" text-anchor="end">station_2</text><line stroke="#d9d9d9" stroke-width="1" x1="0" y1="160.0" x2="784.0" y2="160.0"/><text fill="#1a1a1a" x="190.0" y="149.0" text-anchor="end">transport (transporter)</text><line stroke="#dc2626" stroke-width="1.5" stroke-dasharray="4 3" x1="760.0" y1="34.0" x2="760.0" y2="160.0"/><text fill="#dc2626" x="763.0" y="28.0">now=9</text><rect fill="#3b82f6" x="200.0" y="45.0" width="124.4" height="20" rx="3"/><text fill="#ffffff" x="204.0" y="59.0">SampleSource</text><rect fill="#f59e0b" x="324.4" y="135.0" width="62.2" height="20" rx="3"/><text fill="#3a2a00" x="328.4" y="149.0">&gt; Sampl…</text><rect fill="#f59e0b" fill-opacity="0.2" x="324.4" y="45.0" width="62.2" height="20" rx="3"/><rect fill="#f59e0b" fill-opacity="0.2" x="324.4" y="75.0" width="62.2" height="20" rx="3"/><rect fill="#f59e0b" x="386.7" y="135.0" width="248.9" height="20" rx="3"/><text fill="#3a2a00" x="390.7" y="149.0">&gt; SampleTarget</text><rect fill="#f59e0b" fill-opacity="0.2" x="386.7" y="75.0" width="248.9" height="20" rx="3"/><rect fill="#f59e0b" fill-opacity="0.2" x="386.7" y="105.0" width="248.9" height="20" rx="3"/><rect fill="#3b82f6" x="635.6" y="105.0" width="124.4" height="20" rx="3"/><text fill="#ffffff" x="639.6" y="119.0">SampleTarget</text></g></svg>